<svg width="1600" height="200" viewBox="0 0 1600 200" fill="none" xmlns="http://www.w3.org/2000/svg">
<rect width="1600" height="200" rx="30" fill="#1C1C21"/>
<g filter="url(#filter0_f_3_118)">
<path d="M855.055 140.57C855.515 139.925 855.052 139.041 854.26 139.025C815.341 138.28 783.875 138.97 743.55 141.526C742.76 141.576 742.335 142.481 742.823 143.105C755.639 159.477 775.586 170 797.992 170C821.534 170 842.363 158.383 855.055 140.57Z" stroke="#4C4CFF" stroke-linecap="round" stroke-linejoin="round"/>
<path d="M735.118 69.1689C734.772 69.8725 735.361 70.6658 736.139 70.5696C780.388 65.0983 811.445 63.517 857.771 66.5841C858.557 66.6362 859.102 65.8031 858.709 65.1201C846.62 44.1308 823.957 30 797.992 30C770.391 30 746.521 45.9683 735.118 69.1689Z" stroke="#4C4CFF" stroke-linecap="round" stroke-linejoin="round"/>
</g>
<g filter="url(#filter1_f_3_118)">
<path d="M855.055 140.57C855.515 139.925 855.052 139.041 854.26 139.025C815.341 138.28 783.875 138.97 743.55 141.526C742.76 141.576 742.335 142.481 742.823 143.105C755.639 159.477 775.586 170 797.992 170C821.534 170 842.363 158.383 855.055 140.57Z" stroke="#4C4CFF" stroke-linecap="round" stroke-linejoin="round"/>
<path d="M735.118 69.1689C734.772 69.8725 735.361 70.6658 736.139 70.5696C780.388 65.0983 811.445 63.517 857.771 66.5841C858.557 66.6362 859.102 65.8031 858.709 65.1201C846.62 44.1308 823.957 30 797.992 30C770.391 30 746.521 45.9683 735.118 69.1689Z" stroke="#4C4CFF" stroke-linecap="round" stroke-linejoin="round"/>
</g>
<path d="M855.055 140.57C855.515 139.925 855.052 139.041 854.26 139.025C815.341 138.28 783.875 138.97 743.55 141.526C742.76 141.576 742.335 142.481 742.823 143.105C755.639 159.477 775.586 170 797.992 170C821.534 170 842.363 158.383 855.055 140.57Z" stroke="#4C4CFF" stroke-linecap="round" stroke-linejoin="round"/>
<path d="M735.118 69.1689C734.772 69.8725 735.361 70.6658 736.139 70.5696C780.388 65.0983 811.445 63.517 857.771 66.5841C858.557 66.6362 859.102 65.8031 858.709 65.1201C846.62 44.1308 823.957 30 797.992 30C770.391 30 746.521 45.9683 735.118 69.1689Z" stroke="#4C4CFF" stroke-linecap="round" stroke-linejoin="round"/>
<path d="M855.055 140.57C855.515 139.925 855.052 139.041 854.26 139.025C815.341 138.28 783.875 138.97 743.55 141.526C742.76 141.576 742.335 142.481 742.823 143.105C755.639 159.477 775.586 170 797.992 170C821.534 170 842.363 158.383 855.055 140.57Z" stroke="white" stroke-width="0.5" stroke-linecap="round" stroke-linejoin="round"/>
<path d="M735.118 69.1689C734.772 69.8725 735.361 70.6658 736.139 70.5696C780.388 65.0983 811.445 63.517 857.771 66.5841C858.557 66.6362 859.102 65.8031 858.709 65.1201C846.62 44.1308 823.957 30 797.992 30C770.391 30 746.521 45.9683 735.118 69.1689Z" stroke="white" stroke-width="0.5" stroke-linecap="round" stroke-linejoin="round"/>
<g filter="url(#filter2_f_3_118)">
<path d="M867.901 103.927C867.959 102.868 867.144 101.968 866.088 101.88C817.184 97.7731 780.411 97.1616 729.876 99.9919C728.817 100.051 727.976 100.929 728.005 101.989C728.227 110.139 729.841 117.941 732.619 125.165C732.92 125.949 733.699 126.444 734.538 126.414C781.246 124.737 816.395 124.627 861.656 125.908C862.495 125.932 863.27 125.43 863.565 124.644C866.005 118.142 867.506 111.182 867.901 103.927Z" stroke="#E33CD5" stroke-linecap="round" stroke-linejoin="round"/>
</g>
<g filter="url(#filter3_f_3_118)">
<path d="M867.901 103.927C867.959 102.868 867.144 101.968 866.088 101.88C817.184 97.7731 780.411 97.1616 729.876 99.9919C728.817 100.051 727.976 100.929 728.005 101.989C728.227 110.139 729.841 117.941 732.619 125.165C732.92 125.949 733.699 126.444 734.538 126.414C781.246 124.737 816.395 124.627 861.656 125.908C862.495 125.932 863.27 125.43 863.565 124.644C866.005 118.142 867.506 111.182 867.901 103.927Z" stroke="#E33CD5" stroke-linecap="round" stroke-linejoin="round"/>
</g>
<path d="M867.901 103.927C867.959 102.868 867.144 101.968 866.088 101.88C817.184 97.7731 780.411 97.1616 729.876 99.9919C728.817 100.051 727.976 100.929 728.005 101.989C728.227 110.139 729.841 117.941 732.619 125.165C732.92 125.949 733.699 126.444 734.538 126.414C781.246 124.737 816.395 124.627 861.656 125.908C862.495 125.932 863.27 125.43 863.565 124.644C866.005 118.142 867.506 111.182 867.901 103.927Z" stroke="#E33CD5" stroke-linecap="round" stroke-linejoin="round"/>
<path d="M867.901 103.927C867.959 102.868 867.144 101.968 866.088 101.88C817.184 97.7731 780.411 97.1616 729.876 99.9919C728.817 100.051 727.976 100.929 728.005 101.989C728.227 110.139 729.841 117.941 732.619 125.165C732.92 125.949 733.699 126.444 734.538 126.414C781.246 124.737 816.395 124.627 861.656 125.908C862.495 125.932 863.27 125.43 863.565 124.644C866.005 118.142 867.506 111.182 867.901 103.927Z" stroke="white" stroke-width="0.5" stroke-linecap="round" stroke-linejoin="round"/>
<g filter="url(#filter4_f_3_118)">
<path d="M727.979 84.25C737.312 77.25 746.646 77.25 755.979 84.25C765.312 91.25 774.646 91.25 783.979 84.25C793.312 77.25 802.646 77.25 811.979 84.25C821.312 91.25 830.646 91.25 839.979 84.25C849.312 77.25 858.646 77.25 867.979 84.25" stroke="#00CCCC" stroke-linecap="round" stroke-linejoin="round"/>
</g>
<g filter="url(#filter5_f_3_118)">
<path d="M727.979 84.25C737.312 77.25 746.646 77.25 755.979 84.25C765.312 91.25 774.646 91.25 783.979 84.25C793.312 77.25 802.646 77.25 811.979 84.25C821.312 91.25 830.646 91.25 839.979 84.25C849.312 77.25 858.646 77.25 867.979 84.25" stroke="#00CCCC" stroke-linecap="round" stroke-linejoin="round"/>
</g>
<path d="M727.979 84.25C737.312 77.25 746.646 77.25 755.979 84.25C765.312 91.25 774.646 91.25 783.979 84.25C793.312 77.25 802.646 77.25 811.979 84.25C821.312 91.25 830.646 91.25 839.979 84.25C849.312 77.25 858.646 77.25 867.979 84.25" stroke="#00CCCC" stroke-linecap="round" stroke-linejoin="round"/>
<path d="M727.979 84.25C737.312 77.25 746.646 77.25 755.979 84.25C765.312 91.25 774.646 91.25 783.979 84.25C793.312 77.25 802.646 77.25 811.979 84.25C821.312 91.25 830.646 91.25 839.979 84.25C849.312 77.25 858.646 77.25 867.979 84.25" stroke="white" stroke-width="0.5" stroke-linecap="round" stroke-linejoin="round"/>
<g filter="url(#filter6_f_3_118)">
<ellipse rx="3.5" ry="2.625" transform="matrix(0.885491 0.464656 0.464655 -0.885492 774.298 152.434)" stroke="#4C4CFF"/>
<ellipse rx="5.25001" ry="3.5" transform="matrix(0.965926 0.258819 -0.25882 0.965926 828.456 52.2395)" stroke="#4C4CFF"/>
<ellipse rx="3.49998" ry="2.625" transform="matrix(0.965926 -0.25882 -0.258818 -0.965926 819.539 152.442)" stroke="#4C4CFF"/>
<ellipse cx="792.729" cy="54.5" rx="5.25" ry="3.5" transform="rotate(180 792.729 54.5)" stroke="#4C4CFF"/>
<ellipse cx="807.456" cy="41.7395" rx="5.25001" ry="3.5" transform="rotate(15 807.456 41.7395)" stroke="#4C4CFF"/>
<ellipse rx="3.5" ry="2.625" transform="matrix(1 0 0 -1 797.979 158.625)" stroke="#4C4CFF"/>
<ellipse rx="5.24999" ry="3.5" transform="matrix(0.885491 -0.464656 0.464655 0.885492 769.254 49.5389)" stroke="#4C4CFF"/>
</g>
<g filter="url(#filter7_f_3_118)">
<ellipse rx="3.5" ry="2.625" transform="matrix(0.885491 0.464656 0.464655 -0.885492 774.298 152.434)" stroke="#4C4CFF"/>
<ellipse rx="5.25001" ry="3.5" transform="matrix(0.965926 0.258819 -0.25882 0.965926 828.456 52.2395)" stroke="#4C4CFF"/>
<ellipse rx="3.49998" ry="2.625" transform="matrix(0.965926 -0.25882 -0.258818 -0.965926 819.539 152.442)" stroke="#4C4CFF"/>
<ellipse cx="792.729" cy="54.5" rx="5.25" ry="3.5" transform="rotate(180 792.729 54.5)" stroke="#4C4CFF"/>
<ellipse cx="807.456" cy="41.7395" rx="5.25001" ry="3.5" transform="rotate(15 807.456 41.7395)" stroke="#4C4CFF"/>
<ellipse rx="3.5" ry="2.625" transform="matrix(1 0 0 -1 797.979 158.625)" stroke="#4C4CFF"/>
<ellipse rx="5.24999" ry="3.5" transform="matrix(0.885491 -0.464656 0.464655 0.885492 769.254 49.5389)" stroke="#4C4CFF"/>
</g>
<ellipse rx="3.5" ry="2.625" transform="matrix(0.885491 0.464656 0.464655 -0.885492 774.298 152.434)" stroke="#4C4CFF"/>
<ellipse rx="5.25001" ry="3.5" transform="matrix(0.965926 0.258819 -0.25882 0.965926 828.456 52.2395)" stroke="#4C4CFF"/>
<ellipse rx="3.49998" ry="2.625" transform="matrix(0.965926 -0.25882 -0.258818 -0.965926 819.539 152.442)" stroke="#4C4CFF"/>
<ellipse cx="792.729" cy="54.5" rx="5.25" ry="3.5" transform="rotate(180 792.729 54.5)" stroke="#4C4CFF"/>
<ellipse cx="807.456" cy="41.7395" rx="5.25001" ry="3.5" transform="rotate(15 807.456 41.7395)" stroke="#4C4CFF"/>
<ellipse rx="3.5" ry="2.625" transform="matrix(1 0 0 -1 797.979 158.625)" stroke="#4C4CFF"/>
<ellipse rx="5.24999" ry="3.5" transform="matrix(0.885491 -0.464656 0.464655 0.885492 769.254 49.5389)" stroke="#4C4CFF"/>
<ellipse rx="3.5" ry="2.625" transform="matrix(0.885491 0.464656 0.464655 -0.885492 774.298 152.434)" stroke="white" stroke-width="0.5"/>
<ellipse rx="5.25001" ry="3.5" transform="matrix(0.965926 0.258819 -0.25882 0.965926 828.456 52.2395)" stroke="white" stroke-width="0.5"/>
<ellipse rx="3.49998" ry="2.625" transform="matrix(0.965926 -0.25882 -0.258818 -0.965926 819.539 152.442)" stroke="white" stroke-width="0.5"/>
<ellipse cx="792.729" cy="54.5" rx="5.25" ry="3.5" transform="rotate(180 792.729 54.5)" stroke="white" stroke-width="0.5"/>
<ellipse cx="807.456" cy="41.7395" rx="5.25001" ry="3.5" transform="rotate(15 807.456 41.7395)" stroke="white" stroke-width="0.5"/>
<ellipse rx="3.5" ry="2.625" transform="matrix(1 0 0 -1 797.979 158.625)" stroke="white" stroke-width="0.5"/>
<ellipse rx="5.24999" ry="3.5" transform="matrix(0.885491 -0.464656 0.464655 0.885492 769.254 49.5389)" stroke="white" stroke-width="0.5"/>
<path d="M303.779 101.904C300.867 101.904 298.496 101.064 296.667 99.384C294.875 97.6667 293.979 95.352 293.979 92.44C293.979 88.5947 295.491 85.8133 298.515 84.096C299.971 83.2747 301.726 82.864 303.779 82.864H343.427V90.2H305.627C303.574 90.2 302.547 90.984 302.547 92.552C302.547 94.12 303.574 94.904 305.627 94.904L335.307 94.96C338.219 94.96 340.571 95.8187 342.363 97.536C344.192 99.2533 345.107 101.568 345.107 104.48C345.107 108.4 343.595 111.181 340.571 112.824C339.152 113.608 337.398 114 335.307 114H293.979V106.664L333.459 106.72C335.512 106.72 336.539 105.917 336.539 104.312C336.539 102.744 335.512 101.96 333.459 101.96L303.779 101.904Z" fill="white"/>
<path d="M396.967 114H368.743C365.457 114 363.087 113.253 361.631 111.76C360.697 110.789 360.081 109.688 359.783 108.456C359.559 107.635 359.447 106.365 359.447 104.648V90.2H353.847V82.864H359.447V70.432H368.799V82.864H396.967V90.2H368.799V102.352C368.799 104.069 369.191 105.245 369.975 105.88C370.609 106.403 371.673 106.664 373.167 106.664H396.967V114Z" fill="white"/>
<path d="M423.062 106.664H455.598V114H421.83C416.977 114 413.262 112.637 410.686 109.912C408.147 107.149 406.878 103.323 406.878 98.432C406.878 93.5413 408.147 89.7333 410.686 87.008C413.262 84.2453 416.977 82.864 421.83 82.864H455.598V90.2H423.062C421.345 90.2 419.926 90.6853 418.806 91.656C418.283 92.104 417.611 93.1493 416.79 94.792L416.734 94.904H455.598V101.904H416.734L416.79 102.072C417.537 103.677 418.209 104.723 418.806 105.208C419.926 106.179 421.345 106.664 423.062 106.664Z" fill="white"/>
<path d="M480.88 114C473.712 114 469.101 111.088 467.048 105.264C466.264 103.024 465.872 100.672 465.872 98.208V82.752H476.064V97.256C476.064 99.6827 476.811 101.587 478.304 102.968C479.499 104.088 481.216 104.648 483.456 104.648H512.744V114H480.88Z" fill="white"/>
<path d="M538.341 114C531.173 114 526.562 111.088 524.509 105.264C523.725 103.024 523.333 100.672 523.333 98.208V82.752H533.525V97.256C533.525 99.6827 534.272 101.587 535.765 102.968C536.96 104.088 538.677 104.648 540.917 104.648H570.205V114H538.341Z" fill="white"/>
<path d="M582.922 90.2V82.864H620.274C623.97 82.864 626.901 83.8347 629.066 85.776C630.41 86.9707 631.325 88.3707 631.81 89.976C632.146 91.1707 632.314 92.8507 632.314 95.016V114H590.594C587.533 114 585.125 113.16 583.37 111.48C581.616 109.8 580.738 107.448 580.738 104.424C580.738 101.4 581.616 99.0667 583.37 97.424C585.162 95.744 587.57 94.904 590.594 94.904H622.962V94.624C622.962 92.3093 622.104 90.9093 620.386 90.424C619.864 90.2747 619.061 90.2 617.978 90.2H582.922ZM622.962 106.664V101.904H593.058C591.08 101.904 590.09 102.707 590.09 104.312C590.09 105.88 591.08 106.664 593.058 106.664H622.962Z" fill="white"/>
<path d="M679.618 93.84C679.618 92.7947 679.282 91.9733 678.61 91.376C678.124 90.928 677.378 90.704 676.37 90.704L653.13 90.648V114H643.778V82.864L677.938 82.752C681.596 82.752 684.396 83.7787 686.338 85.832C688.092 87.6987 688.97 89.8453 688.97 92.272V95.52H679.618V93.84Z" fill="white"/>
<path d="M942.291 117.5H902.979V73.932H912.331V86.364H942.291C948.638 86.364 953.024 88.716 955.451 93.42C956.646 95.7347 957.243 98.572 957.243 101.932C957.243 108.689 954.928 113.281 950.299 115.708C948.022 116.903 945.352 117.5 942.291 117.5ZM941.059 94.148H912.331V109.716H941.059C943.224 109.716 944.867 108.932 945.987 107.364C946.958 106.02 947.443 104.209 947.443 101.932C947.443 99.6547 946.958 97.844 945.987 96.5C944.867 94.932 943.224 94.148 941.059 94.148Z" fill="white"/>
<path d="M973.745 106.412C973.745 108.615 974.828 109.716 976.993 109.716H1005.33V86.364H1014.68V117.5H975.481C971.673 117.5 968.873 116.511 967.081 114.532C965.289 112.553 964.393 110.369 964.393 107.98V86.364H973.745V106.412Z" fill="white"/>
<path d="M1059.62 97.34C1059.62 96.2947 1059.29 95.4733 1058.62 94.876C1058.13 94.428 1057.38 94.204 1056.38 94.204L1033.14 94.148V117.5H1023.78V86.364L1057.94 86.252C1061.6 86.252 1064.4 87.2787 1066.34 89.332C1068.1 91.1987 1068.98 93.3453 1068.98 95.772V99.02H1059.62V97.34Z" fill="white"/>
<path d="M1135.07 86.42V118.396C1135.07 122.055 1134 124.911 1131.87 126.964C1129.75 129.017 1127.02 130.044 1123.7 130.044L1080.41 129.932V122.652L1122.02 122.708C1123.47 122.708 1124.48 122.279 1125.04 121.42C1125.49 120.748 1125.71 119.647 1125.71 118.116V117.5H1091.95C1087.09 117.5 1083.38 116.137 1080.8 113.412C1078.26 110.649 1076.99 106.823 1076.99 101.932C1076.99 97.0413 1078.26 93.2333 1080.8 90.508C1083.38 87.7453 1087.09 86.364 1091.95 86.364L1135.07 86.42ZM1093.18 94.148C1091.01 94.148 1089.37 94.932 1088.25 96.5C1087.28 97.844 1086.79 99.6547 1086.79 101.932C1086.79 104.209 1087.28 106.02 1088.25 107.364C1089.33 108.932 1090.98 109.716 1093.18 109.716L1125.71 109.604V94.204L1093.18 94.148Z" fill="white"/>
<path d="M1160.61 110.164H1193.14V117.5H1159.38C1154.52 117.5 1150.81 116.137 1148.23 113.412C1145.69 110.649 1144.42 106.823 1144.42 101.932C1144.42 97.0413 1145.69 93.2333 1148.23 90.508C1150.81 87.7453 1154.52 86.364 1159.38 86.364H1193.14V93.7H1160.61C1158.89 93.7 1157.47 94.1853 1156.35 95.156C1155.83 95.604 1155.16 96.6493 1154.34 98.292L1154.28 98.404H1193.14V105.404H1154.28L1154.34 105.572C1155.08 107.177 1155.76 108.223 1156.35 108.708C1157.47 109.679 1158.89 110.164 1160.61 110.164Z" fill="white"/>
<path d="M1237.52 97.34C1237.52 96.2947 1237.19 95.4733 1236.51 94.876C1236.03 94.428 1235.28 94.204 1234.27 94.204L1211.03 94.148V117.5H1201.68V86.364L1235.84 86.252C1239.5 86.252 1242.3 87.2787 1244.24 89.332C1246 91.1987 1246.87 93.3453 1246.87 95.772V99.02H1237.52V97.34Z" fill="white"/>
<path d="M1264.69 105.404C1261.78 105.404 1259.41 104.564 1257.58 102.884C1255.79 101.167 1254.89 98.852 1254.89 95.94C1254.89 92.0947 1256.41 89.3133 1259.43 87.596C1260.89 86.7747 1262.64 86.364 1264.69 86.364H1304.34V93.7H1266.54C1264.49 93.7 1263.46 94.484 1263.46 96.052C1263.46 97.62 1264.49 98.404 1266.54 98.404L1296.22 98.46C1299.13 98.46 1301.49 99.3187 1303.28 101.036C1305.11 102.753 1306.02 105.068 1306.02 107.98C1306.02 111.9 1304.51 114.681 1301.49 116.324C1300.07 117.108 1298.31 117.5 1296.22 117.5H1254.89V110.164L1294.37 110.22C1296.43 110.22 1297.45 109.417 1297.45 107.812C1297.45 106.244 1296.43 105.46 1294.37 105.46L1264.69 105.404Z" fill="white"/>
<defs>
<filter id="filter0_f_3_118" x="730.514" y="25.5" width="132.829" height="149" filterUnits="userSpaceOnUse" color-interpolation-filters="sRGB">
<feFlood flood-opacity="0" result="BackgroundImageFix"/>
<feBlend mode="normal" in="SourceGraphic" in2="BackgroundImageFix" result="shape"/>
<feGaussianBlur stdDeviation="2" result="effect1_foregroundBlur_3_118"/>
</filter>
<filter id="filter1_f_3_118" x="730.514" y="25.5" width="132.829" height="149" filterUnits="userSpaceOnUse" color-interpolation-filters="sRGB">
<feFlood flood-opacity="0" result="BackgroundImageFix"/>
<feBlend mode="normal" in="SourceGraphic" in2="BackgroundImageFix" result="shape"/>
<feGaussianBlur stdDeviation="2" result="effect1_foregroundBlur_3_118"/>
</filter>
<filter id="filter2_f_3_118" x="723.504" y="93.75" width="148.9" height="37.1655" filterUnits="userSpaceOnUse" color-interpolation-filters="sRGB">
<feFlood flood-opacity="0" result="BackgroundImageFix"/>
<feBlend mode="normal" in="SourceGraphic" in2="BackgroundImageFix" result="shape"/>
<feGaussianBlur stdDeviation="2" result="effect1_foregroundBlur_3_118"/>
</filter>
<filter id="filter3_f_3_118" x="723.504" y="93.75" width="148.9" height="37.1655" filterUnits="userSpaceOnUse" color-interpolation-filters="sRGB">
<feFlood flood-opacity="0" result="BackgroundImageFix"/>
<feBlend mode="normal" in="SourceGraphic" in2="BackgroundImageFix" result="shape"/>
<feGaussianBlur stdDeviation="2" result="effect1_foregroundBlur_3_118"/>
</filter>
<filter id="filter4_f_3_118" x="723.479" y="74.5" width="149" height="19.5" filterUnits="userSpaceOnUse" color-interpolation-filters="sRGB">
<feFlood flood-opacity="0" result="BackgroundImageFix"/>
<feBlend mode="normal" in="SourceGraphic" in2="BackgroundImageFix" result="shape"/>
<feGaussianBlur stdDeviation="2" result="effect1_foregroundBlur_3_118"/>
</filter>
<filter id="filter5_f_3_118" x="723.479" y="74.5" width="149" height="19.5" filterUnits="userSpaceOnUse" color-interpolation-filters="sRGB">
<feFlood flood-opacity="0" result="BackgroundImageFix"/>
<feBlend mode="normal" in="SourceGraphic" in2="BackgroundImageFix" result="shape"/>
<feGaussianBlur stdDeviation="2" result="effect1_foregroundBlur_3_118"/>
</filter>
<filter id="filter6_f_3_118" x="759.827" y="33.595" width="78.2812" height="132.155" filterUnits="userSpaceOnUse" color-interpolation-filters="sRGB">
<feFlood flood-opacity="0" result="BackgroundImageFix"/>
<feBlend mode="normal" in="SourceGraphic" in2="BackgroundImageFix" result="shape"/>
<feGaussianBlur stdDeviation="2" result="effect1_foregroundBlur_3_118"/>
</filter>
<filter id="filter7_f_3_118" x="759.827" y="33.595" width="78.2812" height="132.155" filterUnits="userSpaceOnUse" color-interpolation-filters="sRGB">
<feFlood flood-opacity="0" result="BackgroundImageFix"/>
<feBlend mode="normal" in="SourceGraphic" in2="BackgroundImageFix" result="shape"/>
<feGaussianBlur stdDeviation="2" result="effect1_foregroundBlur_3_118"/>
</filter>
</defs>
</svg>